inDegrees=no
num_controls=7
num_derivatives=13
num_iterations=41
num_multipliers=7
num_parameters=0
num_slacks=7
num_states=26
objective=0.426451
objective_accelerations=0.060042
objective_balance=0.001148
objective_effort=0.015634
objective_height=0.343695
objective_ligament=0.005932
solver_duration=594.984891
status=Solve_Succeeded
success=true
DataType=double
version=3
OpenSimVersion=4.5
endheader
time	/jointset/ground_pelvis/pelvis_tilt/value	/jointset/ground_pelvis/pelvis_tx/value	/jointset/ground_pelvis/pelvis_ty/value	/jointset/hip_l/hip_flexion_l/value	/jointset/hip_l/hip_adduction_l/value	/jointset/hip_l/hip_rotation_l/value	/jointset/back/lumbar_extension/value	/jointset/patellofemoral_l/patellar_flexion_l/value	/jointset/knee_l/knee_flexion_l/value	/jointset/knee_l/knee_adduction_l/value	/jointset/knee_l/knee_rotation_l/value	/jointset/ankle_l/ankle_angle_l/value	/jointset/subtalar_l/subtalar_angle_l/value	/jointset/ground_pelvis/pelvis_tilt/speed	/jointset/ground_pelvis/pelvis_tx/speed	/jointset/ground_pelvis/pelvis_ty/speed	/jointset/hip_l/hip_flexion_l/speed	/jointset/hip_l/hip_adduction_l/speed	/jointset/hip_l/hip_rotation_l/speed	/jointset/back/lumbar_extension/speed	/jointset/patellofemoral_l/patellar_flexion_l/speed	/jointset/knee_l/knee_flexion_l/speed	/jointset/knee_l/knee_adduction_l/speed	/jointset/knee_l/knee_rotation_l/speed	/jointset/ankle_l/ankle_angle_l/speed	/jointset/subtalar_l/subtalar_angle_l/speed	/forceset/tau_hip_flexion_l	/forceset/tau_hip_adduction_l	/forceset/tau_hip_rotation_l	/forceset/tau_knee_flexion_l	/forceset/tau_ankle_angle_l	/forceset/tau_subtalar_angle_l	/forceset/tau_lumbar_extension	lambda_cid13_p0	lambda_cid13_p1	lambda_cid13_p2	lambda_cid13_p3	lambda_cid13_p4	lambda_cid13_p5	lambda_cid14_p0	/jointset/ground_pelvis/pelvis_tilt/accel	/jointset/ground_pelvis/pelvis_tx/accel	/jointset/ground_pelvis/pelvis_ty/accel	/jointset/hip_l/hip_flexion_l/accel	/jointset/hip_l/hip_adduction_l/accel	/jointset/hip_l/hip_rotation_l/accel	/jointset/back/lumbar_extension/accel	/jointset/patellofemoral_l/patellar_flexion_l/accel	/jointset/knee_l/knee_flexion_l/accel	/jointset/knee_l/knee_adduction_l/accel	/jointset/knee_l/knee_rotation_l/accel	/jointset/ankle_l/ankle_angle_l/accel	/jointset/subtalar_l/subtalar_angle_l/accel	gamma_cid13_p0	gamma_cid13_p1	gamma_cid13_p2	gamma_cid13_p3	gamma_cid13_p4	gamma_cid13_p5	gamma_cid14_p0
1	-0.4616863180308203	-0.004041630380503464	0.5861941705549729	1.731094015102529	-0.3450141892422257	0.1340103873576146	-0.4362484509327603	1.527884268294083	1.527884268294085	0.07152447717904963	-0.1744345050603298	0.4351793164916843	0.252015057269257	-0.1432395419578177	0.001926598493964214	0.03125113833232016	0.0301815152696409	-2.065985305299979e-05	-0.0587391595683471	-0.001386610606916751	-0.1444362357771135	-0.1444362357771135	0.001666318894137279	0.0001293257590109136	-0.04355834314419781	-0.02631952917327096	-0.2426913700243615	0.08266006070522401	-0.01532758304989819	-0.2938247826981946	-0.01564597627470993	-0.01504131505247356	0.2106438881190165	-41.24810728147682	24.63319176680687	-16.63408268547262	3.828731255280834	-544.6923466176161	-29.384075976136	-0.02365322463944824	1.459733665609181	0.2486432265755185	2.062243438208914	-6.77739715258734	-0.2384818860189877	-1.561415294657244	-0.03338252664971114	-5.657782235591315	-5.657782235591318	-0.9021926978543795	-0.03033006026742199	-0.8298036407908325	-0.8822572943532743	-1.27736587909876e-09	-1.272506983517396e-07	-7.673344697756007e-08	-8.350155414202164e-09	-7.461582779137936e-09	-1.823168950495082e-07	9.436322100616628e-09
1.01	-0.4630464171371862	-0.004009910043188444	0.5866096118823024	1.731057928638513	-0.3450257299793053	0.1333472764253177	-0.4362629597030654	1.526157334189908	1.526157334189904	0.07149453987101397	-0.1744332129373981	0.4347022173433592	0.2517087039478491	-0.1287670203869627	0.004426133720581398	0.05183134184676679	-0.03740137573371109	-0.002281633741005425	-0.07387556235207431	-0.001505683181736888	-0.2009530014398733	-0.2009530014398729	-0.007651644591601336	0.0001299220666882405	-0.05187258607440877	-0.03494312336724927	-0.2431935546961849	0.08263958974624218	-0.0153657235273622	-0.2928831095537526	-0.01606360366250488	-0.01496556522059957	0.2109366718695221	-41.338858234009	24.56057927868433	-16.55899309173824	3.730156297175336	-544.5967455518902	-29.32350807342598	-0.02366943533402251	1.443000980014516	0.2519048529112953	2.055038660968086	-6.749119577402382	-0.2190095209829122	-1.48863665434196	0.0002494191984727229	-5.64898857666417	-5.648988576664079	-0.9462874283460592	0.01534519643344971	-0.8339072457093601	-0.8511688037521462	-9.011410514391112e-10	-1.696434238632637e-07	-1.081568727410362e-07	-1.755955820642914e-08	-1.172727834253434e-08	-2.371788311126732e-07	1.191384550130959e-08
1.02	-0.4642613931124056	-0.003952935117165813	0.5872306812153577	1.730345936363829	-0.3450597013314228	0.1325330246883656	-0.4362783753906683	1.523865159460096	1.523865159460088	0.07137148507716677	-0.1744318967073645	0.4341416412404059	0.2513163630201354	-0.1142149157284719	0.006977516235486769	0.07237673947749869	-0.1049996468647876	-0.0045067828609479	-0.08896732050025997	-0.001567994072676689	-0.2574843609044677	-0.2574843609044667	-0.01695717825383092	0.0001341471802901836	-0.06025373406754599	-0.0435170504345087	-0.2436957393679922	0.08261911878730047	-0.01540386400503213	-0.2919414364093113	-0.01648123105029167	-0.01488981538865078	0.2112294556200446	-41.43169696188804	24.48518042156202	-16.47985870104813	3.622259376437032	-544.6086933928036	-29.26800165042179	-0.02368792691609794	1.475650283136366	0.2590126842331532	2.055282261465967	-6.780473178132274	-0.2313169324169916	-1.552486367548945	-0.02203018987304041	-5.660700995958236	-5.660700995958213	-0.8997067331525571	-0.02960429908249849	-0.8431846533760827	-0.8723238690094959	-6.037160526962606e-10	-2.121767177904989e-07	-1.393323103193293e-07	-2.658076757706638e-08	-1.603529728050486e-08	-2.906290312565853e-07	1.421293244411868e-08
1.03	-0.4653304184604572	-0.003870150365293488	0.5880569504799461	1.728958027946942	-0.3451157106836288	0.1315681090047532	-0.4362940197393468	1.52100768160325	1.521007681603242	0.0711554916038204	-0.1744305081610831	0.4334968434744692	0.2508385600782343	-0.09957346514196719	0.009591822917910726	0.09286344865890382	-0.1725711054002553	-0.006686231875141873	-0.104003752247336	-0.001540734962592607	-0.3140055815790592	-0.3140055815790594	-0.0262364563807226	0.0001446750125229508	-0.06872433663638551	-0.05203315035337781	-0.2440450552010803	0.08263916098072023	-0.01540850072300562	-0.2907590286883572	-0.01690838547572877	-0.01479779343386638	0.2114414332975801	-41.50464189901857	24.3878248053262	-16.38419513446856	3.497316457682561	-544.3573908544259	-29.19166665479904	-0.02371307161985062	1.460895976989963	0.2644908023924846	2.043311434429105	-6.743842425918208	-0.2099021791186906	-1.477417666267851	0.01812506835721004	-5.646991586307192	-5.646991586307363	-0.9412946426311954	0.01649769100596516	-0.8517871279629751	-0.8396338668408938	-3.070951338403166e-10	-2.547114460893231e-07	-1.70505217405937e-07	-3.5600056606667e-08	-2.03437480896445e-08	-3.440648259319336e-07	1.651019860674528e-08
1.04	-0.4662525285965275	-0.003760852318167651	0.5890876760739387	1.726894732897779	-0.3451932431846144	0.1304531897860801	-0.4363087872755279	1.517585159743038	1.517585159743027	0.07084685409109759	-0.1744289910631579	0.4327667818689681	0.2502759199744419	-0.08483187333216255	0.01228017528618919	0.1132680053584079	-0.2400769733222857	-0.00881141261726809	-0.1189680275136472	-0.001392631576176855	-0.3704931615775565	-0.3704931615775585	-0.03548598611455614	0.0001598575099475411	-0.07730650197823105	-0.0604844828128577	-0.2443943710340982	0.08265920317419109	-0.01541313744118278	-0.289576620967406	-0.01733553990116535	-0.01470577147899381	0.2116534109751902	-41.57992397283441	24.28773784787134	-16.28450852778881	3.363309089031735	-544.2153191079856	-29.12141118513182	-0.02374060712859884	1.495678527796376	0.2738218214040471	2.038851765085754	-6.767355055444861	-0.220463278003432	-1.538055071395985	0.002138665394027716	-5.653972860739406	-5.653972860739479	-0.8937570545409039	-0.0286733660441388	-0.865497207977294	-0.8593703771316535	-1.759495152134682e-10	-2.954353708924513e-07	-1.995057224302004e-07	-4.394854662750962e-08	-2.449085260436491e-08	-3.920999575586626e-07	1.831435444871381e-08
1.05	-0.4670266536720662	-0.003624258870588598	0.5903219567665066	1.724156808672364	-0.3452917267374742	0.1291889397924335	-0.436321367018624	1.513598027594214	1.513598027594205	0.0704460064263597	-0.1744272960988202	0.431950289420582	0.2496291277084331	-0.06996963398059546	0.01505508161727289	0.1335666373236272	-0.3074876533727437	-0.0108735754812888	-0.1338699702441973	-0.001092999470678791	-0.4269181719813442	-0.426918171981341	-0.04467044172476144	0.0001805737544214584	-0.08601534959046714	-0.06885969919277736	-0.2446105109266319	0.08272488475792732	-0.01538652368054078	-0.2881297275342884	-0.01779341301519545	-0.01459977378164795	0.2118001540012847	-41.64241479243955	24.16728637083993	-16.16780563672872	3.213977894866195	-543.8097776164783	-29.02454161909191	-0.02377454212613966	1.485022520504822	0.2817996077505647	2.02213876909166	-6.724892164857575	-0.197295698509067	-1.464471834695198	0.04842312152904438	-5.634504737986011	-5.634504737985125	-0.9288453939308611	0.01759282345261062	-0.8770979291681509	-0.8243755437286594	-4.997499971877801e-11	-3.361027080863389e-07	-2.284383398900156e-07	-5.227607417932856e-08	-2.863291504738472e-08	-4.399663184651223e-07	2.010310059316177e-08
